<svg xmlns="http://www.w3.org/2000/svg" xmlns:xlink="http://www.w3.org/1999/xlink" id="Layer_1" x="0" y="0" version="1.1" viewBox="0 0 64 64" style="enable-background:new 0 0 64 64" xml:space="preserve"><style type="text/css">.st1{fill:#fff}</style><g id="_x37__00000142150856200200808760000010066285445201004190_"><path d="M31.06,62.46c-0.17,0-0.33-0.05-0.47-0.15l-14.26-9.97c-5.32-3.8-8.56-9.71-8.89-16.23L6.08,12.99 c-0.09-1.73,1.12-3.3,2.81-3.65c0.76-0.16,1.82-0.22,3.16-0.19c4.52,0.09,9.09-1.3,12.84-3.93l4.48-3.15 c1.01-0.71,2.37-0.71,3.39-0.01l4.62,3.22c3.79,2.65,8.28,3.99,12.98,3.89c1.21-0.03,2.15,0.03,2.87,0.17l0,0l0,0 c1.7,0.34,2.92,1.91,2.83,3.64l-1.36,23.12c-0.33,6.51-3.57,12.43-8.88,16.22l-14.27,9.98C31.39,62.41,31.22,62.46,31.06,62.46z M11.46,10.8c-0.95,0-1.7,0.06-2.24,0.17c-0.92,0.19-1.54,1-1.49,1.93l1.36,23.12c0.31,6.02,3.3,11.47,8.19,14.97l13.78,9.64 l13.79-9.64c4.89-3.5,7.88-8.95,8.19-14.96l1.36-23.12c0.05-0.92-0.6-1.75-1.5-1.93l0,0c-0.59-0.12-1.43-0.16-2.51-0.14 c-5.04,0.12-9.88-1.34-13.96-4.19l-4.62-3.22c-0.45-0.31-1.05-0.31-1.5,0l-4.48,3.15c-4.09,2.87-8.87,4.34-13.82,4.23 C11.82,10.8,11.64,10.8,11.46,10.8z" class="st1"/><path d="M31.06,43.9c-7.32,0-13.28-5.96-13.28-13.28s5.96-13.28,13.28-13.28s13.28,5.96,13.28,13.28 S38.38,43.9,31.06,43.9z M31.06,19c-6.41,0-11.63,5.22-11.63,11.63s5.22,11.63,11.63,11.63s11.63-5.22,11.63-11.63 S37.47,19,31.06,19z" class="st1"/><path d="M29.51,35.48c-0.22,0-0.43-0.09-0.58-0.24l-3.4-3.4c-0.32-0.32-0.32-0.85,0-1.17c0.32-0.32,0.85-0.32,1.17,0 l2.75,2.75l5.91-7.34c0.29-0.35,0.81-0.41,1.16-0.12c0.35,0.29,0.41,0.81,0.12,1.16l-6.49,8.05c-0.15,0.18-0.36,0.29-0.6,0.31 C29.54,35.48,29.53,35.48,29.51,35.48z" class="st1"/></g></svg>