<svg xmlns="http://www.w3.org/2000/svg" xmlns:xlink="http://www.w3.org/1999/xlink" id="Layer_1" x="0" y="0" version="1.1" viewBox="0 0 64 64" style="enable-background:new 0 0 64 64" xml:space="preserve"><style type="text/css">.st0{fill:#4052d8}</style><g><g><path d="M34.16,27.15C34.16,27.15,34.16,27.15,34.16,27.15c-0.49,0-0.93-0.2-1.23-0.55 c-1.91-2.25-1.82-4.86,0.26-7.34c0.58-0.69,1.31-1.36,2.17-2.01l-1.76-0.54c-0.12-0.04-0.32-0.07-0.51,0 c-2.15,0.71-5.02,3.53-6.14,5.24c-0.3,0.46-0.92,0.59-1.38,0.29c-0.46-0.3-0.59-0.92-0.29-1.38c1.06-1.64,4.26-5.09,7.19-6.05 c0.55-0.18,1.14-0.18,1.72-0.01l2.43,0.75c0.62,0.19,1.06,0.71,1.16,1.35c0.09,0.63-0.18,1.25-0.71,1.6 c-0.96,0.66-1.75,1.36-2.34,2.06c-1.75,2.09-1.2,3.54-0.48,4.49c0.98-1.07,3.04-2.99,6.8-4.79c0.63-0.3,1.33-0.69,2.13-1.19 c3.79-2.38,7.57-5.97,7.61-6.01c0.17-0.16,0.39-0.26,0.62-0.27l7.21-0.53c0.54-0.03,1.03,0.37,1.07,0.92s-0.37,1.03-0.92,1.07 l-6.86,0.5c-0.95,0.88-4.24,3.86-7.67,6.01c-0.87,0.54-1.63,0.97-2.33,1.3c-3.71,1.77-5.58,3.66-6.21,4.39 C35.31,26.88,34.72,27.15,34.16,27.15z M35.94,16.84C35.94,16.84,35.94,16.84,35.94,16.84C35.94,16.84,35.94,16.84,35.94,16.84z" class="st0"/><path d="M18.97,28.32c-0.1,0-0.21-0.02-0.32-0.05c-1.34-0.45-1.9-1.27-2.12-1.88c-0.58-1.55,0.35-3.18,0.45-3.36 l5.58-9.87c0.15-0.24,3.21-5.03,8.59-6.52c5.07-1.41,24.48-4.35,25.3-4.47c0.54-0.08,1.06,0.29,1.14,0.84 c0.08,0.55-0.29,1.06-0.84,1.14c-0.2,0.03-20.11,3.05-25.07,4.42c-4.62,1.28-7.38,5.58-7.4,5.62l-5.57,9.85 c-0.15,0.26-0.52,1.11-0.31,1.66c0.04,0.11,0.17,0.44,0.88,0.67c0.52,0.17,0.81,0.74,0.63,1.26 C19.78,28.05,19.39,28.32,18.97,28.32z" class="st0"/></g><path d="M30.75,44.87c-0.21,0-0.42-0.07-0.6-0.2c-0.68-0.51-16.67-12.48-10.95-20.79c2.6-3.78,5.34-3.96,7.18-3.45 c1.92,0.53,3.47,1.99,4.37,3.01c0.31-0.36,0.7-0.77,1.16-1.17c0.41-0.37,1.05-0.33,1.41,0.09c0.37,0.41,0.33,1.05-0.09,1.41 c-1.02,0.9-1.64,1.83-1.65,1.84c-0.19,0.28-0.53,0.44-0.83,0.44c-0.33,0-0.65-0.17-0.83-0.44c-0.02-0.03-1.78-2.63-4.07-3.26 c-1.79-0.5-3.43,0.37-5,2.66c-2.34,3.4,0.51,8.03,3.32,11.32c2.47,2.9,5.36,5.3,6.58,6.26c1.22-0.97,4.11-3.36,6.58-6.26 c2.8-3.29,5.65-7.92,3.31-11.32c-0.59-0.86-1.2-1.52-1.81-1.98c-0.44-0.33-0.53-0.96-0.21-1.4c0.33-0.44,0.96-0.53,1.4-0.21 c0.79,0.59,1.55,1.41,2.27,2.45c5.72,8.31-10.26,20.28-10.95,20.79C31.17,44.81,30.96,44.87,30.75,44.87z" class="st0"/><g><path d="M12.78,61.84c-3.55,0-6.2-0.01-6.51-0.01c-0.55,0-1-0.45-1-1c0-0.55,0.45-1,1-1c0,0,0,0,0,0 c0.21,0,21.35,0.06,26.2-0.16c4.47-0.21,7.89-3.55,7.92-3.58l9.59-9.12c0.24-0.27,0.23-1.46-0.26-1.97 c-0.23-0.24-0.63-0.11-1.18,0.37l-6.2,4.65c-2.25,1.69-5.04,2.62-7.86,2.62h-7.2c-0.55,0-1-0.45-1-1s0.45-1,1-1h7.2 c2.38,0,4.75-0.79,6.66-2.22l6.14-4.61c1.62-1.4,3.07-1.03,3.87-0.2c1.17,1.22,1.3,3.62,0.24,4.76l-9.61,9.15 c-0.14,0.14-3.96,3.9-9.22,4.15C29.37,61.82,19.48,61.84,12.78,61.84z" class="st0"/><path d="M33.77,52.64c-0.55,0-1-0.45-1-1c0-0.45,0.29-0.82,0.7-0.95c0.02-0.25-0.05-0.76-0.39-1.29 c-0.33-0.53-0.99-1.15-2.2-1.16h-5.19c-2.23-0.13-3.21,0.6-4.45,1.52c-1.33,0.98-2.83,2.11-5.8,2.07l-9.21-0.41 c-0.55-0.02-0.98-0.49-0.95-1.04c0.02-0.55,0.49-0.96,1.04-0.95l9.18,0.41c0.03,0,0.07,0,0.1,0c2.2,0,3.25-0.78,4.46-1.67 c1.31-0.97,2.8-2.08,5.7-1.91l5.14,0c3.13,0.02,4.58,2.61,4.58,4.36C35.46,52,34.58,52.64,33.77,52.64z" class="st0"/></g></g></svg>