<svg xmlns="http://www.w3.org/2000/svg" xmlns:xlink="http://www.w3.org/1999/xlink" id="Layer_1" x="0" y="0" version="1.1" viewBox="0 0 64 64" style="enable-background:new 0 0 64 64" xml:space="preserve"><style type="text/css">.st0{fill:#4052d8}</style><g><path d="M16.37,19.48c-4.39,0-7.96-3.57-7.96-7.96s3.57-7.96,7.96-7.96s7.96,3.57,7.96,7.96S20.76,19.48,16.37,19.48z M16.37,5.55c-3.29,0-5.96,2.68-5.96,5.96c0,3.29,2.68,5.96,5.96,5.96s5.96-2.68,5.96-5.96C22.33,8.22,19.66,5.55,16.37,5.55z" class="st0"/><path d="M9.89,45.92c-1.65,0-2.99-1.34-2.99-2.99V26.86c0-2.5,1.1-4.84,3.03-6.44l3.68-3.05 c0.43-0.35,1.06-0.29,1.41,0.13c0.35,0.43,0.29,1.06-0.13,1.41l-3.68,3.05c-1.46,1.21-2.3,3-2.3,4.9v16.08 c0,0.54,0.44,0.99,0.99,0.99c0.54,0,0.99-0.44,0.99-0.99v-16.5c0-0.55,0.45-1,1-1s1,0.45,1,1v16.5 C12.87,44.58,11.53,45.92,9.89,45.92z" class="st0"/><path d="M22.01,61.55c-0.55,0-1-0.45-1-1v-35.2c0-0.55,0.45-1,1-1s1,0.45,1,1v35.2C23.01,61.1,22.56,61.55,22.01,61.55 z" class="st0"/><path d="M10.57,61.55c-0.55,0-1-0.45-1-1V44.8c0-0.55,0.45-1,1-1s1,0.45,1,1v15.75C11.57,61.1,11.12,61.55,10.57,61.55 z" class="st0"/><path d="M16.37,61.55c-0.55,0-1-0.45-1-1V47.17c0-0.55,0.45-1,1-1s1,0.45,1,1v13.38 C17.37,61.1,16.92,61.55,16.37,61.55z" class="st0"/><path d="M47.39,20.19c-4.39,0-7.96-3.57-7.96-7.96S43,4.27,47.39,4.27c4.39,0,7.96,3.57,7.96,7.96 S51.78,20.19,47.39,20.19z M47.39,6.27c-3.29,0-5.96,2.68-5.96,5.96c0,3.29,2.68,5.96,5.96,5.96s5.96-2.68,5.96-5.96 C53.36,8.94,50.68,6.27,47.39,6.27z" class="st0"/><path d="M40.26,45.93c-1.65,0-2.98-1.34-2.98-2.98V26.86c0-2.5,1.1-4.85,3.03-6.44l3.31-2.74 c0.42-0.35,1.05-0.29,1.41,0.13c0.35,0.43,0.29,1.06-0.13,1.41l-3.31,2.74c-1.47,1.21-2.31,3-2.31,4.9v16.09 c0,0.54,0.44,0.98,0.98,0.98c0.26,0,0.51-0.1,0.69-0.29c0.13-0.13,0.29-0.36,0.29-0.7V28.52c0-0.55,0.45-1,1-1s1,0.45,1,1v14.42 c0,0.8-0.31,1.54-0.88,2.11C41.81,45.61,41.04,45.93,40.26,45.93z" class="st0"/><path d="M53.19,61.55c-0.55,0-1-0.45-1-1V27.74c0-0.55,0.45-1,1-1s1,0.45,1,1v32.81 C54.19,61.1,53.74,61.55,53.19,61.55z" class="st0"/><path d="M40.95,61.55c-0.55,0-1-0.45-1-1V44.8c0-0.55,0.45-1,1-1s1,0.45,1,1v15.75C41.95,61.1,41.5,61.55,40.95,61.55z" class="st0"/><path d="M46.74,61.55c-0.55,0-1-0.45-1-1V45.86c0-0.55,0.45-1,1-1s1,0.45,1,1v14.69C47.74,61.1,47.3,61.55,46.74,61.55 z" class="st0"/><path d="M55.07,45.15c-2.11,0-2.88-1.95-2.88-3.26c0-0.55,0.45-1,1-1s1,0.45,1,1c0,0.01,0.01,1.26,0.88,1.26 c0.3,0,0.52-0.05,0.62-0.15c0.1-0.1,0.21-0.37,0.21-1.12l-0.11-13.61c0-2.12-0.75-3.88-2.3-5.39l-4-3.52 c-0.42-0.36-0.46-1-0.09-1.41c0.36-0.42,1-0.45,1.41-0.09l4.04,3.55c1.97,1.91,2.95,4.2,2.95,6.85l0.11,13.6 c0.01,0.81-0.08,1.83-0.79,2.54C56.62,44.9,55.94,45.15,55.07,45.15z" class="st0"/><path d="M29.09,24.78c-1.56,0-3.1-0.58-4.27-1.64c-1.15-0.91-4.69-3.49-6.6-4.03c-0.53-0.15-0.84-0.7-0.69-1.23 s0.7-0.84,1.23-0.69c2.68,0.75,7.16,4.28,7.35,4.43c1.04,0.94,2.42,1.33,3.74,1.1l10.23-1.86c0.55-0.1,1.06,0.26,1.16,0.81 c0.1,0.54-0.26,1.06-0.81,1.16l-10.23,1.86C29.84,24.74,29.46,24.78,29.09,24.78z" class="st0"/><path d="M27.32,30.04c-1.06,0-2.11-0.23-3.09-0.67l-2.64-1.21c-0.5-0.23-0.72-0.82-0.49-1.33 c0.23-0.5,0.82-0.72,1.33-0.49l2.64,1.21c1.22,0.56,2.6,0.64,3.88,0.24l9.09-2.86c0.53-0.17,1.09,0.13,1.25,0.65 c0.17,0.53-0.13,1.09-0.65,1.25l-9.09,2.86C28.82,29.93,28.07,30.04,27.32,30.04z" class="st0"/><path d="M22.01,43.25H11.87c-0.55,0-1-0.45-1-1s0.45-1,1-1h10.14c0.55,0,1,0.45,1,1S22.56,43.25,22.01,43.25z" class="st0"/><path d="M53.19,42.47H42.24c-0.55,0-1-0.45-1-1s0.45-1,1-1h10.94c0.55,0,1,0.45,1,1S53.74,42.47,53.19,42.47z" class="st0"/><path d="M11.87,31.84H7.9c-0.55,0-1-0.45-1-1s0.45-1,1-1h3.97c0.55,0,1,0.45,1,1S12.42,31.84,11.87,31.84z" class="st0"/><path d="M24.65,29.46c-0.1,0-0.2-0.02-0.31-0.05c-0.53-0.17-0.82-0.73-0.65-1.26l1.74-5.41 c0.17-0.53,0.73-0.82,1.26-0.65c0.53,0.17,0.82,0.73,0.65,1.26l-1.74,5.41C25.47,29.19,25.07,29.46,24.65,29.46z" class="st0"/><path d="M42.24,39.6h-3.97c-0.55,0-1-0.45-1-1s0.45-1,1-1h3.97c0.55,0,1,0.45,1,1S42.8,39.6,42.24,39.6z" class="st0"/><path d="M56.87,39.6h-3.68c-0.55,0-1-0.45-1-1s0.45-1,1-1h3.68c0.55,0,1,0.45,1,1S57.42,39.6,56.87,39.6z" class="st0"/><path d="M45.4,15.5c-0.26,0-0.52-0.1-0.71-0.3c-0.39-0.39-0.38-1.03,0.02-1.41l4.64-4.54 c0.39-0.39,1.03-0.38,1.41,0.01c0.39,0.39,0.38,1.03-0.02,1.41l-4.64,4.54C45.9,15.41,45.65,15.5,45.4,15.5z" class="st0"/><path d="M50.03,15.5c-0.25,0-0.5-0.09-0.7-0.29l-4.64-4.54c-0.39-0.39-0.4-1.02-0.02-1.41 c0.39-0.39,1.02-0.4,1.41-0.01l4.64,4.54c0.39,0.39,0.4,1.02,0.02,1.41C50.55,15.4,50.29,15.5,50.03,15.5z" class="st0"/></g></svg>