<?xml version="1.0" encoding="utf-8"?>
<!-- Generator: Adobe Illustrator 27.2.0, SVG Export Plug-In . SVG Version: 6.00 Build 0)  -->
<svg version="1.1" id="Layer_1" xmlns="http://www.w3.org/2000/svg" xmlns:xlink="http://www.w3.org/1999/xlink" x="0px" y="0px"
	 viewBox="0 0 64 64" style="enable-background:new 0 0 64 64;" xml:space="preserve">
<style type="text/css">
	.st0{fill:#4052D8;}
	.st1{fill:#FFFFFF;}
	.st2{clip-path:url(#SVGID_00000049939932737315732890000006237682205968740749_);fill:#FFFFFF;}
	.st3{clip-path:url(#SVGID_00000091000651880143963160000010792616368199671958_);fill:#4052D8;}
</style>
<g id="_x31_4_00000142162254354198169430000015448241625274814855_">
	<path class="st1" d="M32,47.81c-6.58,0-11.94-5.36-11.94-11.94S25.42,23.93,32,23.93s11.94,5.36,11.94,11.94S38.58,47.81,32,47.81z
		 M32,25.58c-5.67,0-10.29,4.62-10.29,10.29c0,5.67,4.62,10.29,10.29,10.29s10.29-4.62,10.29-10.29C42.29,30.2,37.67,25.58,32,25.58
		z"/>
	<path class="st1" d="M30.62,40.29c-0.22,0-0.43-0.09-0.58-0.24L27,37.02c-0.32-0.32-0.32-0.85,0-1.17s0.85-0.32,1.17,0l2.38,2.38
		l5.22-6.47c0.29-0.35,0.8-0.41,1.16-0.12c0.36,0.29,0.41,0.81,0.12,1.16l-5.79,7.19c-0.15,0.18-0.36,0.29-0.6,0.31
		C30.65,40.29,30.63,40.29,30.62,40.29z"/>
	<path class="st1" d="M54.98,56.28H9.02c-1.77,0-3.21-1.44-3.21-3.21V10.93c0-1.77,1.44-3.21,3.21-3.21h45.96
		c1.77,0,3.21,1.44,3.21,3.21v42.14C58.19,54.84,56.75,56.28,54.98,56.28z M9.02,9.37c-0.86,0-1.56,0.7-1.56,1.56v42.14
		c0,0.86,0.7,1.56,1.56,1.56h45.96c0.86,0,1.56-0.7,1.56-1.56V10.93c0-0.86-0.7-1.56-1.56-1.56H9.02z"/>
	<path class="st1" d="M57.36,17.12H6.64c-0.46,0-0.83-0.37-0.83-0.83s0.37-0.83,0.83-0.83h50.72c0.46,0,0.83,0.37,0.83,0.83
		S57.82,17.12,57.36,17.12z"/>
	<circle class="st1" cx="12" cy="12.47" r="1.32"/>
	<circle class="st1" cx="16.21" cy="12.47" r="1.32"/>
	<circle class="st1" cx="20.42" cy="12.47" r="1.32"/>
</g>
</svg>
