<svg xmlns="http://www.w3.org/2000/svg" xmlns:xlink="http://www.w3.org/1999/xlink" id="Layer_1" x="0" y="0" version="1.1" viewBox="0 0 64 64" style="enable-background:new 0 0 64 64" xml:space="preserve"><style type="text/css">.st0{fill:#4052d8}</style><g id="_x31_4"><path d="M32.4,47.81c-6.58,0-11.94-5.36-11.94-11.94s5.36-11.94,11.94-11.94c6.58,0,11.94,5.36,11.94,11.94 S38.98,47.81,32.4,47.81z M32.4,25.58c-5.67,0-10.29,4.62-10.29,10.29c0,5.67,4.62,10.29,10.29,10.29s10.29-4.62,10.29-10.29 C42.69,30.2,38.07,25.58,32.4,25.58z" class="st0"/><path d="M31.02,40.29c-0.22,0-0.43-0.09-0.58-0.24l-3.03-3.03c-0.32-0.32-0.32-0.85,0-1.17s0.85-0.32,1.17,0l2.38,2.38 l5.22-6.47c0.29-0.35,0.8-0.41,1.16-0.12c0.36,0.29,0.41,0.81,0.12,1.16l-5.79,7.19c-0.15,0.18-0.36,0.29-0.6,0.31 C31.05,40.29,31.03,40.29,31.02,40.29z" class="st0"/><path d="M55.38,56.28H9.42c-1.77,0-3.21-1.44-3.21-3.21V10.93c0-1.77,1.44-3.21,3.21-3.21h45.96 c1.77,0,3.21,1.44,3.21,3.21v42.14C58.58,54.84,57.14,56.28,55.38,56.28z M9.42,9.37c-0.86,0-1.56,0.7-1.56,1.56v42.14 c0,0.86,0.7,1.56,1.56,1.56h45.96c0.86,0,1.56-0.7,1.56-1.56V10.93c0-0.86-0.7-1.56-1.56-1.56H9.42z" class="st0"/><path d="M57.76,17.12H7.04c-0.46,0-0.83-0.37-0.83-0.83s0.37-0.83,0.83-0.83h50.72c0.46,0,0.83,0.37,0.83,0.83 S58.21,17.12,57.76,17.12z" class="st0"/><circle cx="12.4" cy="12.47" r="1.32" class="st0"/><circle cx="16.61" cy="12.47" r="1.32" class="st0"/><circle cx="20.82" cy="12.47" r="1.32" class="st0"/></g></svg>