<svg xmlns="http://www.w3.org/2000/svg" xmlns:xlink="http://www.w3.org/1999/xlink" id="katman_1" x="0" y="0" version="1.1" viewBox="0 0 1320.32 373.6" style="enable-background:new 0 0 1320.32 373.6" xml:space="preserve"><style type="text/css">.st0{fill:#4052d8}</style><path d="M505.73,96.78c-7.3-41.83-36.65-76.34-76.61-90.08c-24.87-8.55-53.08-8.93-81.56-1.1	c-31.59,8.69-63.13,27.03-93.77,54.49c-30.64-27.46-62.18-45.8-93.77-54.49c-28.48-7.83-56.68-7.45-81.56,1.1	C38.5,20.44,9.14,54.96,1.84,96.78c-8.94,51.25,14.9,103.9,65.41,144.45c34.85,27.99,67.79,48.95,96.85,67.44	c34.12,21.71,63.59,40.47,88.25,64.93l1.13-1.14l0.76,0.17l0.96,0.97c24.66-24.47,54.13-43.22,88.26-64.93	c29.06-18.49,62-39.45,96.85-67.44C490.83,200.68,514.67,148.03,505.73,96.78z M437.78,238.07c-34.68,27.84-67.52,48.74-96.49,67.18	c-32.01,20.37-59.94,38.15-83.82,60.55c25.31-101.37,91.88-148.53,136.27-179.97c13.95-9.88,26-18.42,33.82-26.59	c14.12-14.76,21.65-30.29,25.27-37.76l0.67-1.38c3.3-6.72,1.12-11.01-1.74-12.64c-3.46-1.97-7.94-0.61-10.42,3.17	c-4.18,6.38-16.22,24.47-19.59,29.1c-0.58,0.79-1.42,1.48-2.04,1.04c-0.64-0.46-1.04-1.93,0.14-3.66	c3.58-5.21,18.51-28.01,21.67-34.45c3.3-6.72,1.12-11.02-1.74-12.65c-3.46-1.97-7.94-0.61-10.42,3.17	c-4.12,6.28-16.08,24.25-19.6,29.11c-0.79,1.09-1.69,1.56-2.24,1.17c-0.63-0.45-0.91-1.95,0.45-3.89	c3.95-5.74,18.29-27.67,21.57-34.35c3.3-6.72,1.12-11.02-1.74-12.65c-3.46-1.97-7.94-0.61-10.42,3.17l-0.68,1.05	c-4.26,6.51-15.57,23.8-18.87,28c-1.07,1.36-2.15,1.35-2.76,0.93c-0.72-0.5-1-1.73-0.01-3.32l1.06-1.7	c4.13-6.62,13.81-22.12,16.72-28.06c3.3-6.72,1.12-11.01-1.74-12.65c-3.46-1.97-7.94-0.61-10.42,3.17l-0.16,0.24	c-3.81,5.81-12.73,19.43-19.45,28.88c-4.07,5.72-6.81,7.36-8.03,6.98c-0.4-0.12-3.93-1.72-4.21-19.3	c-0.14-8.95-4.09-10.46-5.78-10.69c-4.43-0.62-8.82,4.52-11.46,13.39c-15.92,53.53-73.62,101.7-137.2,114.54	c-53.88,10.88-101.52-5-134.13-44.71c-10.54-12.83-19.26-27.47-22.55-34.18c-1.69-3.45-1.65-6.33,0.11-7.33	c1.36-0.77,3.61-0.29,5.02,1.87c3.5,5.34,16.08,24.29,19.71,29.27c2.44,3.35,5.68,3.37,7.66,1.96c2.39-1.69,3.36-5.62,0.86-9.27	c-3.54-5.15-18.29-27.66-21.37-33.94c-1.69-3.45-1.65-6.33,0.11-7.34c1.36-0.77,3.61-0.28,5.02,1.87	c3.63,5.55,16.06,24.23,19.7,29.26c2.53,3.49,5.86,3.53,7.88,2.1c2.32-1.65,3.3-5.54,0.54-9.5c-4.18-6.06-18.22-27.62-21.27-33.84	c-1.69-3.46-1.65-6.34,0.11-7.34c1.36-0.77,3.61-0.28,5.02,1.87l0.85,1.3c4.65,7.1,15.54,23.73,18.9,28.02	c2.5,3.2,6.06,3.3,8.28,1.75c2.28-1.6,3.41-5.13,1.13-8.79l-1.09-1.74c-4.1-6.56-13.68-21.92-16.5-27.66	c-1.69-3.45-1.65-6.33,0.11-7.34c1.36-0.77,3.61-0.29,5.04,1.9c3.84,5.86,12.83,19.59,19.67,29.22c3.1,4.36,7.77,9.98,12.54,8.51	c4.59-1.43,6.84-8.77,7.06-23.11c0.07-4.62,1.69-6.82,3.17-6.91c1.89-0.11,5.02,3.03,6.06,10.41c2.85,20.2,9.12,31.71,19.18,35.19	c19.91,6.89,48.37-20.4,73.48-44.48c3.66-3.51,7.12-6.83,10.45-9.93l0,0c57.54-52.1,120.46-71.7,172.65-53.76	c38.56,13.26,66.89,46.57,73.94,86.94C510.41,147.22,487.1,198.47,437.78,238.07z" class="st0"/><g><g><path d="M665.32,207.53c3.42,6.67,5.13,14.48,5.13,23.44c0,8.74-1.71,16.47-5.13,23.19 c-3.42,6.72-8.15,11.93-14.2,15.63c-6.05,3.7-12.88,5.55-20.5,5.55c-6.05,0-11.32-1.15-15.8-3.45c-4.48-2.3-8.18-5.41-11.09-9.33 l-2.35,11.76H580.7V156.69h23.7v42.18c6.61-7.96,15.29-11.93,26.05-11.93c7.73,0,14.62,1.76,20.67,5.29 C657.17,195.77,661.91,200.87,665.32,207.53z M646.42,231.15c0-7.39-1.96-13.39-5.88-17.98c-3.92-4.59-9.08-6.89-15.46-6.89 c-6.39,0-11.48,2.27-15.29,6.81c-3.81,4.54-5.71,10.5-5.71,17.9c0,7.51,1.9,13.56,5.71,18.15s8.91,6.89,15.29,6.89 c6.39,0,11.54-2.3,15.46-6.89C644.45,244.53,646.42,238.54,646.42,231.15z" class="st0"/><path d="M696.33,150.31c3.92,0,7.17,1.26,9.75,3.78c2.58,2.52,3.87,5.69,3.87,9.5s-1.29,6.97-3.87,9.5 c-2.58,2.52-5.83,3.78-9.75,3.78c-3.92,0-7.17-1.26-9.75-3.78c-2.58-2.52-3.87-5.69-3.87-9.5s1.29-6.97,3.87-9.5 S692.41,150.31,696.33,150.31z M708.26,187.95v86.38h-23.86v-86.38H708.26z" class="st0"/><path d="M778,209.47h-9.41c-6.72,0-11.65,2.02-14.79,6.05c-3.14,4.03-4.71,9.52-4.71,16.47v42.35h-23.7v-86.38h21.51 l2.18,12.94c2.58-4.26,5.77-7.48,9.58-9.66c3.81-2.19,8.91-3.28,15.29-3.28H778V209.47z" class="st0"/><path d="M813.12,156.69v117.64h-23.7V156.69H813.12z" class="st0"/><path d="M842.37,150.31c3.92,0,7.17,1.26,9.75,3.78c2.58,2.52,3.87,5.69,3.87,9.5s-1.29,6.97-3.87,9.5 c-2.58,2.52-5.83,3.78-9.75,3.78c-3.92,0-7.17-1.26-9.75-3.78c-2.58-2.52-3.87-5.69-3.87-9.5s1.29-6.97,3.87-9.5 S838.44,150.31,842.37,150.31z M854.3,187.95v86.38h-23.86v-86.38H854.3z" class="st0"/><path d="M895.13,156.69v68.06l33.95-36.81h26.55l-30.76,33.78l32.44,52.6h-27.39l-21.85-34.96l-12.94,13.95v21.01 h-23.7V156.69H895.13z" class="st0"/><path d="M988.91,163.75v24.2h19.66v20h-19.66v37.81c0,3.03,0.64,5.21,1.93,6.55c1.29,1.34,3.45,2.02,6.47,2.02h12.27 v20h-19.66c-16.47,0-24.7-8.24-24.7-24.71v-85.88H988.91z" class="st0"/><path d="M1036.39,192.41c6.55-3.64,14.15-5.46,22.77-5.46c8.74,0,16.44,1.71,23.11,5.13 c6.67,3.42,11.88,8.24,15.63,14.45c3.75,6.22,5.69,13.53,5.8,21.93c0,3.03-0.22,5.71-0.67,8.07h-62.69v0.67 c0.56,6.27,2.58,11.2,6.05,14.79c3.47,3.58,8.23,5.38,14.29,5.38c4.82,0,8.82-1.04,12.02-3.11c3.19-2.07,5.29-5.13,6.3-9.16h23.36 c-0.9,5.71-3.08,10.87-6.55,15.46c-3.47,4.59-8.07,8.21-13.78,10.84s-12.27,3.95-19.66,3.95c-9.64,0-17.96-1.79-24.96-5.38 c-7-3.59-12.38-8.71-16.13-15.38c-3.75-6.67-5.63-14.42-5.63-23.28c0-8.96,1.82-16.78,5.46-23.44 C1024.74,201.2,1029.83,196.05,1036.39,192.41z M1073.53,208.88c-3.53-2.86-7.98-4.29-13.36-4.29c-5.15,0-9.5,1.48-13.03,4.45 c-3.53,2.97-5.63,6.97-6.3,12.02H1080C1079.22,215.8,1077.06,211.73,1073.53,208.88z" class="st0"/><path d="M1151.93,249.97l20.5-62.01h25.38l-38.32,98.65c-2.02,5.27-3.92,9.38-5.71,12.35 c-1.79,2.97-4.06,5.21-6.81,6.72c-2.75,1.51-6.3,2.27-10.67,2.27h-23.02v-20h13.11c3.03,0,5.21-0.5,6.55-1.51 c1.34-1.01,2.63-2.97,3.87-5.88l2.18-5.71l-33.28-86.89h25.21L1151.93,249.97z" class="st0"/><path d="M1218.64,150.31c3.92,0,7.17,1.26,9.75,3.78c2.58,2.52,3.87,5.69,3.87,9.5s-1.29,6.97-3.87,9.5 c-2.58,2.52-5.83,3.78-9.75,3.78c-3.92,0-7.17-1.26-9.75-3.78c-2.58-2.52-3.87-5.69-3.87-9.5s1.29-6.97,3.87-9.5 S1214.72,150.31,1218.64,150.31z M1230.58,187.95v86.38h-23.86v-86.38H1230.58z" class="st0"/><path d="M1318.3,187.95v16.13l-43.19,50.25h45.21v20h-77.14V258.2l43.19-50.25h-41.17v-20H1318.3z" class="st0"/></g></g></svg>