<svg xmlns="http://www.w3.org/2000/svg" xmlns:xlink="http://www.w3.org/1999/xlink" id="Layer_1" x="0" y="0" version="1.1" viewBox="0 0 64 64" style="enable-background:new 0 0 64 64" xml:space="preserve"><style type="text/css">.st1{fill:#fff}</style><g><g><path d="M59.1,36.57H25.53c-0.65,0-0.97,0.79-0.52,1.25l4.16,4.16v15.75c0,1.21,0.98,2.19,2.19,2.19H59.1 c1.21,0,2.19-0.98,2.19-2.19V38.76C61.29,37.55,60.3,36.57,59.1,36.57z M36.47,42.41h10.95c0.4,0,0.73,0.33,0.73,0.73 c0,0.4-0.33,0.73-0.73,0.73H36.47c-0.4,0-0.73-0.33-0.73-0.73C35.75,42.74,36.07,42.41,36.47,42.41z M36.47,47.52h3.65 c0.4,0,0.73,0.33,0.73,0.73s-0.33,0.73-0.73,0.73h-3.65c-0.4,0-0.73-0.33-0.73-0.73S36.07,47.52,36.47,47.52z M49.61,54.08H36.47 c-0.4,0-0.73-0.33-0.73-0.73c0-0.4,0.33-0.73,0.73-0.73h13.14c0.4,0,0.73,0.33,0.73,0.73C50.34,53.76,50.01,54.08,49.61,54.08z M53.99,54.08h-1.46c-0.4,0-0.73-0.33-0.73-0.73c0-0.4,0.33-0.73,0.73-0.73h1.46c0.4,0,0.73,0.33,0.73,0.73 C54.72,53.76,54.39,54.08,53.99,54.08z M53.99,48.98H43.04c-0.4,0-0.73-0.33-0.73-0.73s0.33-0.73,0.73-0.73h10.95 c0.4,0,0.73,0.33,0.73,0.73S54.39,48.98,53.99,48.98z M53.99,43.87h-3.65c-0.4,0-0.73-0.33-0.73-0.73c0-0.4,0.33-0.73,0.73-0.73 h3.65c0.4,0,0.73,0.33,0.73,0.73C54.72,43.54,54.39,43.87,53.99,43.87z" class="st1"/></g><g><path d="M49.76,25.2c0-2.64-1.11-5.2-3.04-7.01c-0.84-0.79-1.79-1.39-2.81-1.83c1.79-1.21,2.96-3.26,2.96-5.57 c0-3.71-3.02-6.72-6.72-6.72s-6.72,3.02-6.72,6.72c0,2.32,1.19,4.38,2.99,5.58c-3.45,1.51-5.87,5.04-5.87,9.11v0.66 c0,1.59,1.29,2.88,2.88,2.88h13.44c1.59,0,2.88-1.29,2.88-2.88V25.2z M35.36,10.8c0-2.65,2.15-4.8,4.8-4.8 c2.65,0,4.8,2.15,4.8,4.8s-2.15,4.8-4.8,4.8C37.51,15.6,35.36,13.45,35.36,10.8z M47.84,26.16c0,0.53-0.43,0.96-0.96,0.96H33.44 c-0.53,0-0.96-0.43-0.96-0.96V25.5c0-4.31,3.33-7.98,7.69-7.98c1.96,0,3.81,0.73,5.25,2.08c1.57,1.47,2.43,3.46,2.43,5.61V26.16z" class="st1"/><path d="M5.59,48.54v0.66c0,1.59,1.29,2.88,2.88,2.88h13.44c1.59,0,2.88-1.29,2.88-2.88v-0.96 c0-3.72-2.18-7.27-5.84-8.83c1.79-1.21,2.96-3.25,2.96-5.57c0-3.71-3.02-6.72-6.72-6.72s-6.72,3.02-6.72,6.72 c0,2.32,1.19,4.38,2.99,5.58C8.01,40.93,5.59,44.47,5.59,48.54z M10.4,33.84c0-2.65,2.15-4.8,4.8-4.8s4.8,2.15,4.8,4.8 s-2.15,4.8-4.8,4.8S10.4,36.49,10.4,33.84z M15.2,40.57c4.21,0,7.68,3.4,7.68,7.68v0.96c0,0.53-0.43,0.96-0.96,0.96H8.48 c-0.53,0-0.96-0.43-0.96-0.96v-0.66C7.52,44.23,10.85,40.57,15.2,40.57z" class="st1"/><path d="M5.59,23.28h18.24c1.59,0,2.88-1.29,2.88-2.88v-9.2l5.48-5.48c0.6-0.6,0.17-1.64-0.68-1.64H5.59 c-1.59,0-2.88,1.29-2.88,2.88V20.4C2.71,21.99,4.01,23.28,5.59,23.28z M4.63,6.96C4.63,6.43,5.07,6,5.59,6H29.2l-4.12,4.12 c-0.18,0.18-0.28,0.42-0.28,0.68v9.6c0,0.53-0.43,0.96-0.96,0.96H5.59c-0.53,0-0.96-0.43-0.96-0.96V6.96z" class="st1"/><path d="M9.44,11.76H20c0.53,0,0.96-0.43,0.96-0.96S20.53,9.84,20,9.84H9.44c-0.53,0-0.96,0.43-0.96,0.96 S8.91,11.76,9.44,11.76z" class="st1"/><path d="M9.44,17.52H20c0.53,0,0.96-0.43,0.96-0.96c0-0.53-0.43-0.96-0.96-0.96H9.44c-0.53,0-0.96,0.43-0.96,0.96 C8.48,17.09,8.91,17.52,9.44,17.52z" class="st1"/></g></g></svg>