<svg xmlns="http://www.w3.org/2000/svg" xmlns:xlink="http://www.w3.org/1999/xlink" id="Layer_1" x="0" y="0" version="1.1" viewBox="0 0 64 64" style="enable-background:new 0 0 64 64" xml:space="preserve"><style type="text/css"/><g><defs><path id="SVGID_00000029724613437607022660000003500788421008884891_" d="M58.2,8.56H5.8c-0.58,0-1.05,0.47-1.05,1.05v39.3 c0,0.58,0.47,1.05,1.05,1.05h34.28l-0.95,2.61c-0.13,0.35-0.06,0.75,0.18,1.03c0.24,0.29,0.62,0.42,0.99,0.36l2.22-0.4l1.45,1.73 c0.2,0.24,0.5,0.38,0.8,0.38c0.06,0,0.12-0.01,0.18-0.02c0.37-0.06,0.68-0.32,0.8-0.67l1.83-5.03h0.92l1.83,5.03 c0.13,0.35,0.43,0.61,0.8,0.67c0.06,0.01,0.12,0.02,0.18,0.02c0.31,0,0.6-0.14,0.8-0.38l1.45-1.73l2.22,0.4 c0.37,0.07,0.75-0.07,0.99-0.36c0.24-0.29,0.31-0.68,0.18-1.03l-0.95-2.61h2.19c0.58,0,1.05-0.47,1.05-1.05V9.61 C59.25,9.03,58.78,8.56,58.2,8.56z M42.06,37.63c-0.19-0.57,0.01-1.19,0.5-1.54c0.6-0.43,1.06-1.06,1.28-1.77 c0.18-0.57,0.7-0.95,1.3-0.95c0,0,0.01,0,0.01,0c0.01,0,0.02,0,0.02,0c0.73,0,1.46-0.24,2.05-0.68c0.48-0.36,1.14-0.36,1.62,0v0 c0.59,0.44,1.32,0.68,2.05,0.68c0.01,0,0.02,0,0.02,0c0,0,0.01,0,0.01,0c0.6,0,1.12,0.38,1.3,0.95c0.22,0.71,0.68,1.34,1.29,1.77 c0.49,0.35,0.69,0.97,0.5,1.54c-0.23,0.7-0.23,1.48,0,2.19c0.19,0.57-0.01,1.19-0.5,1.54c-0.6,0.43-1.06,1.06-1.28,1.77 c-0.18,0.57-0.7,0.95-1.3,0.95c0,0-0.01,0-0.01,0c-0.01,0-0.02,0-0.02,0c-0.73,0-1.46,0.24-2.05,0.68 c-0.21,0.15-0.44,0.24-0.69,0.26c-0.02,0-0.03,0-0.05,0c-0.05,0-0.1,0-0.15,0c-0.02,0-0.03,0-0.05,0 c-0.24-0.02-0.48-0.11-0.69-0.26c-0.59-0.44-1.32-0.68-2.05-0.68c-0.01,0-0.02,0-0.02,0c-0.6,0-1.13-0.38-1.31-0.95 c-0.22-0.71-0.68-1.34-1.28-1.77c-0.49-0.35-0.69-0.97-0.5-1.54C42.29,39.11,42.29,38.34,42.06,37.63z M44.4,52.56l-0.67-0.8 c-0.24-0.29-0.62-0.43-0.99-0.36l-1.03,0.18l2.07-5.67c0.42,0.18,0.88,0.27,1.36,0.27c0.01,0,0.02,0,0.03,0c0,0,0.01,0,0.01,0 c0.29,0,0.58,0.09,0.81,0.27c0.17,0.12,0.34,0.23,0.53,0.32L44.4,52.56z M53.34,51.39c-0.37-0.07-0.75,0.07-0.99,0.36l-0.67,0.8 l-2.11-5.79c0.18-0.09,0.36-0.2,0.53-0.32c0.23-0.17,0.52-0.27,0.81-0.27c0,0,0.01,0,0.01,0c0.01,0,0.02,0,0.03,0 c0.48,0,0.94-0.1,1.36-0.27l2.07,5.67L53.34,51.39z M57.15,47.86h-1.91l-1.27-3.48c0.11-0.19,0.19-0.4,0.26-0.62 c0.09-0.28,0.27-0.53,0.51-0.7c1.24-0.89,1.75-2.46,1.27-3.91c-0.09-0.28-0.09-0.58,0-0.86c0.48-1.45-0.03-3.02-1.27-3.91 c-0.24-0.17-0.42-0.42-0.51-0.7c-0.46-1.45-1.78-2.41-3.3-2.41c-0.01,0-0.02,0-0.04,0c-0.29,0-0.58-0.09-0.81-0.27 c-1.23-0.91-2.88-0.91-4.11,0c-0.23,0.17-0.52,0.27-0.81,0.27c-0.01,0-0.02,0-0.04,0c-1.52,0-2.84,0.97-3.3,2.42 c-0.09,0.28-0.27,0.53-0.51,0.7c-1.24,0.89-1.75,2.46-1.27,3.91c0.09,0.28,0.09,0.58,0,0.86c-0.48,1.45,0.03,3.02,1.27,3.91 c0.24,0.17,0.42,0.42,0.51,0.7c0.07,0.22,0.16,0.42,0.26,0.62l-1.27,3.48H6.85v-37.2h50.3V47.86z M9.73,39.97V18.55 c0-0.58,0.47-1.05,1.05-1.05c1.61,0,2.91-1.31,2.91-2.91c0-0.58,0.47-1.05,1.05-1.05h34.52c0.58,0,1.05,0.47,1.05,1.05 c0,1.61,1.31,2.91,2.91,2.91c0.58,0,1.05,0.47,1.05,1.05v9.37c0,0.58-0.47,1.05-1.05,1.05c-0.58,0-1.05-0.47-1.05-1.05v-8.43 c-1.92-0.41-3.44-1.93-3.85-3.85H15.68c-0.41,1.92-1.93,3.44-3.85,3.85v19.55c1.92,0.41,3.44,1.93,3.85,3.85h21.53 c0.58,0,1.05,0.47,1.05,1.05c0,0.58-0.47,1.05-1.05,1.05H14.74c-0.58,0-1.05-0.47-1.05-1.05c0-1.61-1.31-2.91-2.91-2.91 C10.2,41.02,9.73,40.55,9.73,39.97z M26.36,22.46c-0.58,0-1.05-0.47-1.05-1.05s0.47-1.05,1.05-1.05h11.28 c0.58,0,1.05,0.47,1.05,1.05s-0.47,1.05-1.05,1.05H26.36z M45.02,26.64c0,0.58-0.47,1.05-1.05,1.05H20.03 c-0.58,0-1.05-0.47-1.05-1.05c0-0.58,0.47-1.05,1.05-1.05h23.93C44.55,25.6,45.02,26.07,45.02,26.64z M40.3,31.88 c0,0.58-0.47,1.05-1.05,1.05H20.03c-0.58,0-1.05-0.47-1.05-1.05s0.47-1.05,1.05-1.05h19.22C39.83,30.83,40.3,31.3,40.3,31.88z M36.63,36.06c0.58,0,1.05,0.47,1.05,1.05c0,0.58-0.47,1.05-1.05,1.05h-16.6c-0.58,0-1.05-0.47-1.05-1.05 c0-0.58,0.47-1.05,1.05-1.05H36.63z M48.04,43.24c2.47,0,4.48-2.01,4.48-4.48s-2.01-4.48-4.48-4.48s-4.48,2.01-4.48,4.48 S45.57,43.24,48.04,43.24z M48.04,36.38c1.32,0,2.39,1.07,2.39,2.39c0,1.32-1.07,2.39-2.39,2.39c-1.32,0-2.39-1.07-2.39-2.39 C45.66,37.45,46.73,36.38,48.04,36.38z"/></defs><use xlink:href="#SVGID_00000029724613437607022660000003500788421008884891_" style="overflow:visible;fill:#4052d8"/><clipPath id="SVGID_00000181803425145073292250000011411257840510092708_"><use xlink:href="#SVGID_00000029724613437607022660000003500788421008884891_" style="overflow:visible"/></clipPath><rect x="-20.4" y="-20.28" style="clip-path:url(#SVGID_00000181803425145073292250000011411257840510092708_);fill:#4052d8" width="104.8" height="104.8"/></g></svg>