<svg xmlns="http://www.w3.org/2000/svg" xmlns:xlink="http://www.w3.org/1999/xlink" id="Layer_1" x="0" y="0" version="1.1" viewBox="0 0 64 64" style="enable-background:new 0 0 64 64" xml:space="preserve"><style type="text/css"/><g><defs><path id="SVGID_1_" d="M57.91,8.87H5.51c-0.58,0-1.05,0.47-1.05,1.05v39.3c0,0.58,0.47,1.05,1.05,1.05h34.28l-0.95,2.61 c-0.13,0.35-0.06,0.75,0.18,1.03c0.24,0.29,0.62,0.42,0.99,0.36l2.22-0.4l1.45,1.73c0.2,0.24,0.5,0.38,0.8,0.38 c0.06,0,0.12-0.01,0.18-0.02c0.37-0.06,0.68-0.32,0.8-0.67l1.83-5.03h0.92l1.83,5.03c0.13,0.35,0.43,0.61,0.8,0.67 c0.06,0.01,0.12,0.02,0.18,0.02c0.31,0,0.6-0.14,0.8-0.38l1.45-1.73l2.22,0.4c0.37,0.07,0.75-0.07,0.99-0.36 c0.24-0.29,0.31-0.68,0.18-1.03l-0.95-2.61h2.19c0.58,0,1.05-0.47,1.05-1.05V9.92C58.96,9.34,58.49,8.87,57.91,8.87z M41.76,37.94 c-0.19-0.57,0.01-1.19,0.5-1.54c0.6-0.43,1.06-1.06,1.28-1.77c0.18-0.57,0.7-0.95,1.3-0.95c0,0,0.01,0,0.01,0 c0.01,0,0.02,0,0.02,0c0.73,0,1.46-0.24,2.05-0.68c0.48-0.36,1.14-0.36,1.62,0v0c0.59,0.44,1.32,0.68,2.05,0.68 c0.01,0,0.02,0,0.02,0c0,0,0.01,0,0.01,0c0.6,0,1.12,0.38,1.3,0.95c0.22,0.71,0.68,1.34,1.28,1.77c0.49,0.35,0.69,0.97,0.5,1.54 c-0.23,0.7-0.23,1.48,0,2.19c0.19,0.57-0.01,1.19-0.5,1.54c-0.6,0.43-1.06,1.06-1.28,1.77c-0.18,0.57-0.7,0.95-1.3,0.95 c0,0-0.01,0-0.01,0c-0.01,0-0.02,0-0.02,0c-0.73,0-1.46,0.24-2.05,0.68c-0.21,0.15-0.44,0.24-0.69,0.26c-0.02,0-0.03,0-0.05,0 c-0.05,0-0.1,0-0.15,0c-0.02,0-0.03,0-0.05,0c-0.24-0.02-0.48-0.11-0.69-0.26c-0.59-0.44-1.32-0.68-2.05-0.68 c-0.01,0-0.02,0-0.02,0c-0.6,0-1.13-0.38-1.31-0.95c-0.22-0.71-0.68-1.34-1.28-1.77c-0.49-0.35-0.69-0.97-0.5-1.54 C42,39.42,42,38.65,41.76,37.94z M44.11,52.87l-0.67-0.8c-0.24-0.29-0.62-0.43-0.99-0.36l-1.03,0.18l2.07-5.67 c0.42,0.18,0.88,0.27,1.36,0.27c0.01,0,0.02,0,0.03,0c0,0,0.01,0,0.01,0c0.29,0,0.58,0.09,0.81,0.27 c0.17,0.12,0.34,0.23,0.53,0.32L44.11,52.87z M53.04,51.7c-0.37-0.07-0.75,0.07-0.99,0.36l-0.67,0.8l-2.11-5.79 c0.18-0.09,0.36-0.2,0.53-0.32c0.23-0.17,0.52-0.27,0.81-0.27c0,0,0.01,0,0.01,0c0.01,0,0.02,0,0.03,0c0.48,0,0.94-0.1,1.36-0.27 l2.07,5.67L53.04,51.7z M56.86,48.17h-1.91l-1.27-3.48c0.11-0.19,0.19-0.4,0.26-0.62c0.09-0.28,0.27-0.53,0.51-0.7 c1.24-0.89,1.75-2.46,1.27-3.91c-0.09-0.28-0.09-0.58,0-0.86c0.48-1.45-0.03-3.02-1.27-3.91c-0.24-0.17-0.42-0.42-0.51-0.7 c-0.46-1.45-1.78-2.41-3.3-2.41c-0.01,0-0.02,0-0.04,0c-0.29,0-0.58-0.09-0.81-0.27c-1.23-0.91-2.88-0.91-4.11,0 c-0.23,0.17-0.52,0.27-0.81,0.27c-0.01,0-0.02,0-0.04,0c-1.52,0-2.84,0.97-3.3,2.42c-0.09,0.28-0.27,0.53-0.51,0.7 c-1.24,0.89-1.75,2.46-1.27,3.91c0.09,0.28,0.09,0.58,0,0.86c-0.48,1.45,0.03,3.02,1.27,3.91c0.24,0.17,0.42,0.42,0.51,0.7 c0.07,0.22,0.16,0.42,0.26,0.62l-1.27,3.48H6.56v-37.2h50.3V48.17z M9.44,40.28V18.86c0-0.58,0.47-1.05,1.05-1.05 c1.61,0,2.91-1.31,2.91-2.91c0-0.58,0.47-1.05,1.05-1.05h34.52c0.58,0,1.05,0.47,1.05,1.05c0,1.61,1.31,2.91,2.91,2.91 c0.58,0,1.05,0.47,1.05,1.05v9.37c0,0.58-0.47,1.05-1.05,1.05s-1.05-0.47-1.05-1.05V19.8c-1.92-0.41-3.44-1.93-3.85-3.85H15.38 c-0.41,1.92-1.93,3.44-3.85,3.85v19.55c1.92,0.41,3.44,1.93,3.85,3.85h21.53c0.58,0,1.05,0.47,1.05,1.05 c0,0.58-0.47,1.05-1.05,1.05H14.45c-0.58,0-1.05-0.47-1.05-1.05c0-1.61-1.31-2.91-2.91-2.91C9.91,41.33,9.44,40.86,9.44,40.28z M26.07,22.77c-0.58,0-1.05-0.47-1.05-1.05s0.47-1.05,1.05-1.05h11.28c0.58,0,1.05,0.47,1.05,1.05s-0.47,1.05-1.05,1.05H26.07z M44.72,26.95c0,0.58-0.47,1.05-1.05,1.05H19.74c-0.58,0-1.05-0.47-1.05-1.05c0-0.58,0.47-1.05,1.05-1.05h23.93 C44.25,25.91,44.72,26.38,44.72,26.95z M40.01,32.19c0,0.58-0.47,1.05-1.05,1.05H19.74c-0.58,0-1.05-0.47-1.05-1.05 c0-0.58,0.47-1.05,1.05-1.05h19.22C39.54,31.14,40.01,31.61,40.01,32.19z M36.34,36.37c0.58,0,1.05,0.47,1.05,1.05 c0,0.58-0.47,1.05-1.05,1.05h-16.6c-0.58,0-1.05-0.47-1.05-1.05c0-0.58,0.47-1.05,1.05-1.05H36.34z M47.75,43.55 c2.47,0,4.48-2.01,4.48-4.48s-2.01-4.48-4.48-4.48s-4.48,2.01-4.48,4.48S45.28,43.55,47.75,43.55z M47.75,36.69 c1.32,0,2.39,1.07,2.39,2.39c0,1.32-1.07,2.39-2.39,2.39c-1.32,0-2.39-1.07-2.39-2.39C45.36,37.76,46.43,36.69,47.75,36.69z"/></defs><use xlink:href="#SVGID_1_" style="overflow:visible;fill:#fff"/><clipPath id="SVGID_00000090255745397575900580000011502668728947187075_"><use xlink:href="#SVGID_1_" style="overflow:visible"/></clipPath><rect x="-20.69" y="-19.97" style="clip-path:url(#SVGID_00000090255745397575900580000011502668728947187075_);fill:#fff" width="104.8" height="104.8"/></g></svg>