<?xml version="1.0" encoding="utf-8"?>
<!-- Generator: Adobe Illustrator 27.2.0, SVG Export Plug-In . SVG Version: 6.00 Build 0)  -->
<svg version="1.1" id="Layer_1" xmlns="http://www.w3.org/2000/svg" xmlns:xlink="http://www.w3.org/1999/xlink" x="0px" y="0px"
	 viewBox="0 0 64 64" style="enable-background:new 0 0 64 64;" xml:space="preserve">
<style type="text/css">
	.st0{fill:#4052D8;}
	.st1{fill:#FFFFFF;}
	.st2{clip-path:url(#SVGID_00000061437485615762615770000006506137365082838658_);fill:#FFFFFF;}
	.st3{clip-path:url(#SVGID_00000118387194875771393050000018239733418595135380_);fill:#4052D8;}
</style>
<g>
	<path class="st0" d="M32.35,33.89c-0.19,0-0.37-0.05-0.54-0.16c-0.57-0.36-14.02-9.03-15.48-17.57c-0.41-2.38,0.14-4.54,1.61-6.42
		c2.03-2.58,4.34-3.9,6.87-3.9c0.01,0,0.01,0,0.02,0c3.34,0.01,6.11,2.34,7.45,3.71c1.19-1.44,3.67-3.87,6.9-4.04
		c2.67-0.13,5.22,1.28,7.56,4.22c1.49,1.86,2.04,4.01,1.65,6.38c-1.42,8.53-14.94,17.25-15.51,17.62
		C32.72,33.84,32.54,33.89,32.35,33.89z M24.81,7.85c-1.88,0-3.67,1.05-5.3,3.13c-1.13,1.44-1.53,3.02-1.21,4.85
		C19.46,22.61,29.85,30,32.35,31.69c2.51-1.7,12.96-9.14,14.08-15.9c0.3-1.81-0.11-3.38-1.24-4.8c-1.92-2.4-3.91-3.57-5.89-3.47
		c-3.48,0.17-6.08,4.12-6.11,4.16c-0.18,0.27-0.47,0.44-0.8,0.46c-0.33,0.03-0.63-0.13-0.83-0.38C31.53,11.71,28.47,7.85,24.81,7.85
		C24.82,7.85,24.82,7.85,24.81,7.85z"/>
	<g>
		<path class="st0" d="M35.41,58.49c-0.55,0-1-0.45-1-1V44.77c0-1.58,0.6-3.07,1.69-4.21l6.63-5.82c1.25-1.05,3.04-1.05,4.27-0.01
			l2.17,1.82c0.42,0.35,0.48,0.99,0.12,1.41c-0.36,0.42-0.99,0.48-1.41,0.12l-2.17-1.82c-0.49-0.41-1.2-0.41-1.69,0L37.48,42
			c-0.67,0.71-1.07,1.71-1.07,2.77v12.72C36.41,58.04,35.96,58.49,35.41,58.49z"/>
		<path class="st0" d="M47.54,58.49c-0.55,0-1-0.45-1-1v-6.73c0-0.28,0.12-0.55,0.33-0.74l7.01-6.33c1.18-1.41,1.75-3.26,1.57-5.09
			L54.6,21.25c-0.05-0.46-0.47-0.84-0.98-0.84h-0.13c-0.52,0-0.95,0.41-0.98,0.92l-1.26,11.5c-0.43,2.3-0.91,3.88-2.17,5.37
			l-4.45,4.38c-0.39,0.39-1.03,0.38-1.41-0.01c-0.39-0.39-0.38-1.03,0.01-1.41l4.38-4.31c0.91-1.09,1.29-2.37,1.66-4.31l1.25-11.38
			c0.09-1.52,1.4-2.75,2.98-2.75h0.13c1.54,0,2.82,1.16,2.97,2.69l0.85,17.35c0.24,2.34-0.52,4.76-2.08,6.59
			c-0.03,0.03-0.06,0.06-0.09,0.09l-6.73,6.07v6.28C48.54,58.04,48.09,58.49,47.54,58.49z"/>
	</g>
	<g>
		<path class="st0" d="M28.59,58.49c-0.55,0-1-0.45-1-1V44.77c0-1.06-0.4-2.07-1.14-2.83l-6.51-5.7c-0.47-0.39-1.18-0.39-1.67,0.02
			l-2.17,1.82c-0.42,0.35-1.05,0.3-1.41-0.12c-0.35-0.42-0.3-1.05,0.12-1.41L17,34.73c1.23-1.03,3.02-1.03,4.25,0l6.59,5.77
			c1.15,1.2,1.75,2.7,1.75,4.27v12.72C29.59,58.04,29.14,58.49,28.59,58.49z"/>
		<path class="st0" d="M16.46,58.49c-0.55,0-1-0.45-1-1v-6.28l-6.73-6.07c-0.03-0.03-0.06-0.06-0.09-0.09
			c-1.56-1.83-2.32-4.25-2.08-6.64L7.4,21.15c0.16-1.58,1.44-2.74,2.98-2.74h0.13c1.57,0,2.88,1.23,2.98,2.8l1.26,11.4
			c0.35,1.87,0.73,3.14,1.71,4.3l4.32,4.24c0.39,0.39,0.4,1.02,0.01,1.41c-0.39,0.39-1.02,0.4-1.41,0.01l-4.38-4.31
			c-1.32-1.56-1.81-3.14-2.22-5.37l-1.27-11.52c-0.04-0.56-0.47-0.97-0.99-0.97h-0.13c-0.51,0-0.93,0.38-0.98,0.89L8.56,38.55
			c-0.19,1.88,0.38,3.74,1.57,5.15l7.01,6.33c0.21,0.19,0.33,0.46,0.33,0.74v6.73C17.46,58.04,17.02,58.49,16.46,58.49z"/>
	</g>
</g>
</svg>
