<svg xmlns="http://www.w3.org/2000/svg" xmlns:xlink="http://www.w3.org/1999/xlink" id="Layer_1" x="0" y="0" version="1.1" viewBox="0 0 64 64" style="enable-background:new 0 0 64 64" xml:space="preserve"><style type="text/css">.st0{fill:#4052d8}</style><g><g><path d="M47.39,64.37c-0.46,0-0.87-0.32-0.98-0.79c-2.06-9.39,0.48-15.61,2.93-21.63c2.15-5.27,4.18-10.25,3.05-17.19 c-1.89-11.64-8.43-17.29-20-17.29c-10.5,0-19.04,8.54-19.04,19.04c0,2.02,0.31,4,0.93,5.91c0.07,0.22,0.06,0.46-0.02,0.67 l-2.96,7.54c-0.09,0.22-0.01,0.39,0.05,0.47c0.06,0.08,0.18,0.23,0.42,0.23l3.07,0.1c0.46,0.01,0.85,0.34,0.94,0.79l1.83,8.39 c0.39,1.77,2.03,2.95,3.84,2.75l10.71-1.24c0.33-0.14,2.44-1.17,3.74-5.5c0.16-0.53,0.72-0.83,1.25-0.67 c0.53,0.16,0.83,0.72,0.67,1.25c-1.77,5.86-5.03,6.83-5.17,6.87c-0.05,0.01-0.1,0.02-0.15,0.03l-10.82,1.25 c-2.82,0.33-5.42-1.52-6.02-4.31L14,43.42l-2.29-0.08c-0.82-0.03-1.57-0.45-2.02-1.13c-0.45-0.68-0.54-1.54-0.24-2.3l2.83-7.21 c-0.61-2-0.92-4.08-0.92-6.18c0-11.6,9.44-21.04,21.04-21.04c12.54,0,19.93,6.38,21.98,18.97c1.22,7.49-1.02,12.97-3.18,18.26 c-2.34,5.73-4.76,11.66-2.83,20.44c0.12,0.54-0.22,1.07-0.76,1.19C47.53,64.36,47.46,64.37,47.39,64.37z" class="st0"/><path d="M29.23,64.37c-0.13,0-0.27-0.03-0.4-0.08c-0.51-0.22-0.74-0.81-0.52-1.32c1.94-4.45-1.39-8.48-1.53-8.65 c-0.35-0.42-0.3-1.05,0.12-1.41c0.42-0.36,1.05-0.31,1.41,0.11c0.18,0.21,4.29,5.14,1.84,10.74 C29.98,64.14,29.61,64.37,29.23,64.37z" class="st0"/></g><path d="M29.33,33.13c-2.13,0-4.42-0.42-6.57-1.3c-4.01-1.63-6.36-3.71-7.01-6.18c-0.65-2.46,0.68-4.36,0.89-4.64 c0.19-0.27,1.61-2.19,4.05-2.62c0.23-2.37,1.6-4.25,3.9-5.33c1.19-0.56,2.89-0.78,4.86-0.7c0.07-0.32,0.17-0.62,0.31-0.91 c0.53-1.1,1.81-2.41,4.92-2.43c2.84,0.01,4.3,1.33,5.02,3.37c0.4-0.18,0.81-0.32,1.24-0.41c2.89-0.59,5.34,0.82,6.56,3.76 c0.6,1.45,0.85,3.17,0.69,4.9c1.17,1.4,1.96,2.91,2.33,4.46c0.89,3.74-0.16,5.59-1.19,6.48c-1.24,1.07-3.1,1.25-4.98,0.5 c-1.06-0.42-2.23-1.2-3.23-2.35c-1.35,0.42-2.66,0.46-3.92,0.22c-0.05,0.07-0.1,0.14-0.15,0.21C35.61,32.1,32.66,33.13,29.33,33.13 z M18.23,22.21L18.23,22.21c-0.04,0.05-0.99,1.32-0.55,2.96c0.49,1.79,2.5,3.45,5.83,4.81c4.75,1.94,9.73,1.22,11.62-0.65 c-1.22-0.5-2.38-1.22-3.5-2.04c-0.69,0.82-1.44,1.41-2.3,1.66c-0.9,0.27-1.83,0.13-2.75-0.41c-3.11-1.82-5.34-4.99-5.84-8.12 c-1.55,0.4-2.47,1.73-2.48,1.74C18.26,22.18,18.25,22.2,18.23,22.21z M43.06,28.88c0.66,0.64,1.38,1.08,2.04,1.35 c1.18,0.47,2.27,0.41,2.94-0.16c0.86-0.75,1.06-2.35,0.55-4.5c-0.18-0.77-0.5-1.54-0.94-2.28c-0.69,2.03-2,3.92-3.99,5.23 C43.45,28.64,43.25,28.77,43.06,28.88z M37.93,28.04c0.65,0.08,1.31,0.06,1.98-0.07c-0.55-1.04-0.95-2.26-1.09-3.66 c-0.18-1.8-0.24-3.55-0.3-5.1c-0.04-1.04-0.08-1.97-0.14-2.79c-0.09-0.04-0.19-0.07-0.28-0.11c-1.15,1.46-2.16,3.4-3.11,5.24 c0.34,0.47,0.71,0.96,1.1,1.44C37.74,25.06,38.09,26.75,37.93,28.04z M32.79,25.67c1.04,0.76,2.09,1.41,3.17,1.84 c0.02-1.16-0.69-2.35-1.42-3.27c-0.17-0.21-0.35-0.45-0.55-0.7C33.58,24.3,33.19,25.02,32.79,25.67z M40.45,17.34 c0.03,0.59,0.05,1.19,0.07,1.8c0.06,1.59,0.11,3.24,0.29,4.97c0.12,1.24,0.49,2.3,1,3.17c0.24-0.13,0.48-0.27,0.73-0.43 c2.01-1.33,3.15-3.43,3.54-5.58C44.68,19.82,42.79,18.48,40.45,17.34z M22.8,20.47c0.52,2.42,2.36,4.91,4.8,6.34 c0.57,0.34,0.95,0.29,1.17,0.22c0.43-0.12,0.86-0.47,1.29-0.97c-0.86-0.72-1.69-1.46-2.49-2.17c-0.78-0.7-1.54-1.38-2.29-2 C24.43,21.18,23.6,20.7,22.8,20.47z M22.69,18.39c1.28,0.23,2.57,0.88,3.87,1.95c0.77,0.64,1.55,1.34,2.35,2.06 c0.76,0.68,1.52,1.37,2.3,2.02c0.49-0.82,0.98-1.76,1.47-2.7c-1.44-2.14-2.97-4.9-3.29-7.35c-1.7-0.07-3.09,0.1-3.95,0.51 C23.85,15.62,22.91,16.83,22.69,18.39z M17.44,21.6L17.44,21.6L17.44,21.6z M31.44,14.56c0.28,1.4,1.07,3.17,2.28,5.11 c0.73-1.41,1.52-2.82,2.4-4.05C34.5,15.11,32.9,14.76,31.44,14.56z M40.27,15.05c0.31,0.13,0.61,0.27,0.91,0.42 c1.94,0.93,3.61,2,5,3.17c-0.08-0.76-0.26-1.48-0.53-2.13c-0.49-1.19-1.71-3.1-4.31-2.57c-0.4,0.08-0.79,0.24-1.16,0.45 C40.21,14.6,40.24,14.82,40.27,15.05z M31.46,12.54c1.92,0.25,4,0.73,6.05,1.43c0.15-0.15,0.31-0.3,0.47-0.44 c-0.48-1.8-1.43-2.51-3.29-2.51c-1.67,0.01-2.72,0.44-3.13,1.29C31.52,12.39,31.49,12.46,31.46,12.54z" class="st0"/></g></svg>